Coordinates
version=1
nRows=17
nColumns=24
inDegrees=yes

Units are S.I. units (second, meters, Newtons, ...)
Angles are in degrees.

endheader
time	pelvis_tilt	pelvis_list	pelvis_rotation	pelvis_tx	pelvis_ty	pelvis_tz	hip_flexion_r	hip_adduction_r	hip_rotation_r	knee_angle_r	ankle_angle_r	subtalar_angle_r	mtp_angle_r	hip_flexion_l	hip_adduction_l	hip_rotation_l	knee_angle_l	ankle_angle_l	subtalar_angle_l	mtp_angle_l	lumbar_extension	lumbar_bending	lumbar_rotation
      0.74150000	      2.81636055	     -4.19724736	     -3.23645849	     -0.46843948	      1.01972083	      0.33161655	      7.61060777	      6.93242982	     -2.11531193	    -14.52153877	     -2.09485201	    -11.74902032	     -4.06364645	     15.93228377	    -10.25821712	     -9.73231243	    -74.71927497	     -0.57950453	    -15.78416355	      6.79337690	    -13.70358660	      6.12473247	      7.40862389
      0.74566667	      2.86625885	     -4.02787551	     -3.31641371	     -0.46311300	      1.02074990	      0.33204998	      7.09518814	      6.77725015	     -1.94901953	    -14.25951378	     -2.00980338	    -11.81173740	     -4.04391594	     16.56181615	    -10.09808114	     -9.78055532	    -74.65428921	     -0.20677900	    -15.84130882	      6.79337690	    -13.77029820	      5.88604121	      7.50162764
      0.74983333	      2.93756412	     -3.85666614	     -3.40370327	     -0.45776328	      1.02181207	      0.33248916	      6.54391994	      6.61579845	     -1.77433021	    -13.97366221	     -1.92423498	    -11.84181010	     -4.01907292	     17.13732237	     -9.93664030	     -9.85090702	    -74.49451242	      0.16404790	    -15.80490774	      6.79337690	    -13.85321697	      5.64083424	      7.65031111
      0.75400000	      3.02195917	     -3.68929679	     -3.49849703	     -0.45238338	      1.02288665	      0.33294515	      5.96364313	      6.45650038	     -1.59304131	    -13.65996924	     -1.84677668	    -11.86327787	     -3.99133300	     17.66971291	     -9.78325568	     -9.94720244	    -74.24912728	      0.50627746	    -15.78715665	      6.79337690	    -13.94223496	      5.39643735	      7.82253141
      0.75816667	      3.20114506	     -3.51747166	     -3.64343585	     -0.44693251	      1.02415307	      0.33355716	      5.25105551	      6.29586947	     -1.34471030	    -13.29536808	     -1.75928781	    -11.87565869	     -3.92917715	     18.03335223	     -9.65363907	    -10.13719715	    -73.87104901	      0.75559656	    -15.74196766	      6.79337690	    -14.13463177	      5.10691629	      8.14583773
      0.76233333	      3.22535558	     -3.38072624	     -3.70604235	     -0.44153219	      1.02506338	      0.33389325	      4.72224290	      6.15859674	     -1.21189349	    -12.95402972	     -1.71139053	    -11.89805727	     -3.90934496	     18.60929784	     -9.51689494	    -10.21413270	    -73.50011668	      1.07365168	    -15.82275103	      6.79337690	    -14.15810050	      4.92586782	      8.21869465
      0.76650000	      3.41406450	     -3.20573425	     -3.81713472	     -0.43605644	      1.02630345	      0.33436451	      3.98040558	      5.97413783	     -1.02136717	    -12.54729138	     -1.64962576	    -11.89328260	     -3.85132009	     18.92568203	     -9.35698188	    -10.39401626	    -72.96825729	      1.28937383	    -15.83778298	      6.79337690	    -14.35504113	      4.65231815	      8.45443709
      0.77066667	      3.43656454	     -3.08188123	     -3.86736075	     -0.43061987	      1.02715118	      0.33466612	      3.43069495	      5.84343997	     -0.91106413	    -12.16171604	     -1.62719976	    -11.90281853	     -3.83448527	     19.45870244	     -9.22870501	    -10.48296994	    -72.45397096	      1.59453387	    -15.93398966	      6.79337690	    -14.36932930	      4.47848950	      8.51691172
      0.77483333	      3.62542447	     -2.90849001	     -4.15879191	     -0.42512726	      1.02834307	      0.33564632	      2.67931136	      5.69350763	     -0.47132234	    -11.74167397	     -1.59302481	    -12.04232790	     -2.69620189	     19.65879988	     -9.17563324	    -10.90018206	    -71.75132568	      1.76528379	    -15.93243786	    -13.83938734	    -14.56888235	      4.12983574	      8.95441932
      0.77900000	      3.79035205	     -2.79597478	     -4.04389189	     -0.41956776	      1.02942273	      0.33548412	      1.90493436	      5.52638809	     -0.58302420	    -11.21397304	     -1.61813063	    -11.97319337	     -2.71513173	     20.01049891	     -8.95644154	    -10.84930256	    -71.05389304	      1.89602784	    -16.13094053	    -13.87871390	    -14.72464972	      4.01408373	      8.92981571
      0.78316667	      3.84097965	     -2.66830626	     -4.08973773	     -0.41405369	      1.03024197	      0.33574241	      1.28591186	      5.37810766	     -0.48526163	    -10.75187350	     -1.63406226	    -11.92570247	     -2.72578216	     20.42362570	     -8.81242082	    -10.97444031	    -70.30790649	      2.14351741	    -16.25621198	    -13.90706423	    -14.76936326	      3.82964104	      8.94698085
      0.78733333	      4.12370839	     -2.52766000	     -4.14846614	     -0.40844658	      1.03147840	      0.33607767	      0.36408908	      5.20149582	     -0.37779575	    -10.19414079	     -1.62627520	    -11.92741515	     -2.75046755	     20.50852644	     -8.65810429	    -11.18083185	    -69.40832955	      2.23951130	    -16.43197376	    -13.97280403	    -15.04973075	      3.58902620	      9.05651751
      0.79150000	      4.29375787	     -2.41381399	     -4.22754477	     -0.40286582	      1.03244345	      0.33643042	     -0.42435667	      5.06040223	     -0.23269073	     -9.65976696	     -1.63852097	    -11.91236528	     -2.78523849	     20.70458200	     -8.54350365	    -11.38913364	    -68.49057112	      2.44688613	    -16.58339905	    -14.05103573	    -15.22093890	      3.40451150	      9.16950744
      0.79566667	      4.42462585	     -2.29538999	     -4.26755532	     -0.39723796	      1.03330378	      0.33670798	     -1.18406428	      4.91623339	     -0.13415115	     -9.09838203	     -1.68438038	    -11.96088517	     -2.81810918	     20.92993111	     -8.40757108	    -11.56401827	    -67.50692571	      2.57055025	    -16.71250295	    -14.11099160	    -15.32544843	      3.21418269	      9.26219477
      0.79983333	      4.60136824	     -2.17828908	     -4.33465292	     -0.39159852	      1.03419149	      0.33704294	     -2.00252474	      4.76720144	     -0.00746367	     -8.51830475	     -1.73959857	    -11.97999976	     -2.85796694	     21.06192062	     -8.28167845	    -11.78661380	    -66.44986684	      2.72835952	    -16.86018178	    -14.17251778	    -15.48755935	      3.01154590	      9.35357955
      0.80400000	      4.74979950	     -2.06615652	     -4.40280366	     -0.38594451	      1.03498003	      0.33736884	     -2.79204288	      4.62370411	      0.12029739	     -7.93641669	     -1.79313724	    -12.01087645	     -2.90320602	     21.20077762	     -8.16150079	    -12.01820982	    -65.33606797	      2.87256115	    -17.01739357	    -14.23222062	    -15.61652811	      2.81865584	      9.44975368
      0.80816667	      4.95408577	     -1.96598605	     -4.46733203	     -0.38032333	      1.03578721	      0.33768238	     -3.65171491	      4.48704982	      0.26735804	     -7.33187875	     -1.85330622	    -12.05512231	     -2.96019079	     21.25270239	     -8.04553852	    -12.25342166	    -64.15826086	      3.01108536	    -17.15725334	    -14.29723119	    -15.82131890	      2.63873900	      9.55031860
